HIERARCHY
ROOT Hips
{
	OFFSET 0.000000 0.000000 0.000000
	CHANNELS 6 Xposition Yposition Zposition Xrotation Zrotation Yrotation
	JOINT LHipJoint
	{
		OFFSET 0.000000 0.000000 0.000000
		CHANNELS 6 Xposition Yposition Zposition Xrotation Zrotation Yrotation
		JOINT LeftUpLeg
		{
			OFFSET 0.165674 -0.062477 -0.180282
			CHANNELS 3 Xrotation Zrotation Yrotation
			JOINT LeftLeg
			{
				OFFSET 0.259720 0.000000 -0.713576
				CHANNELS 6 Xposition Yposition Zposition Xrotation Zrotation Yrotation
				JOINT LeftFoot
				{
					OFFSET 0.249236 0.000000 -0.684770
					CHANNELS 6 Xposition Yposition Zposition Xrotation Zrotation Yrotation
					JOINT LeftToeBase
					{
						OFFSET 0.019704 -0.214581 -0.054136
						CHANNELS 6 Xposition Yposition Zposition Xrotation Zrotation Yrotation
						End Site
						{
							OFFSET 0.000000 -0.111249 0.000000
						}
					}
				}
			}
		}
	}
	JOINT RHipJoint
	{
		OFFSET 0.000000 0.000000 0.000000
		CHANNELS 6 Xposition Yposition Zposition Xrotation Zrotation Yrotation
		JOINT RightUpLeg
		{
			OFFSET -0.161070 -0.062476 -0.180282
			CHANNELS 3 Xrotation Zrotation Yrotation
			JOINT RightLeg
			{
				OFFSET -0.259502 0.000000 -0.712977
				CHANNELS 6 Xposition Yposition Zposition Xrotation Zrotation Yrotation
				JOINT RightFoot
				{
					OFFSET -0.246780 0.000000 -0.678024
					CHANNELS 6 Xposition Yposition Zposition Xrotation Zrotation Yrotation
					JOINT RightToeBase
					{
						OFFSET -0.023024 -0.213368 -0.063258
						CHANNELS 6 Xposition Yposition Zposition Xrotation Zrotation Yrotation
						End Site
						{
							OFFSET 0.000000 -0.111569 0.000000
						}
					}
				}
			}
		}
	}
	JOINT LowerBack
	{
		OFFSET 0.000000 0.000000 0.000000
		CHANNELS 6 Xposition Yposition Zposition Xrotation Zrotation Yrotation
		JOINT Spine
		{
			OFFSET 0.001961 0.014112 0.205450
			CHANNELS 3 Xrotation Zrotation Yrotation
			JOINT Spine1
			{
				OFFSET 0.001021 0.005921 0.206436
				CHANNELS 6 Xposition Yposition Zposition Xrotation Zrotation Yrotation
				JOINT Neck
				{
					OFFSET 0.000000 0.000000 0.000000
					CHANNELS 6 Xposition Yposition Zposition Xrotation Zrotation Yrotation
					JOINT Neck1
					{
						OFFSET 0.000713 -0.014968 0.156711
						CHANNELS 3 Xrotation Zrotation Yrotation
						JOINT Head
						{
							OFFSET 0.003429 0.010006 0.156041
							CHANNELS 6 Xposition Yposition Zposition Xrotation Zrotation Yrotation
							End Site
							{
								OFFSET 0.001305 0.005265 0.162560
							}
						}
					}
				}
				JOINT LeftShoulder
				{
					OFFSET 0.000000 0.000000 0.000000
					CHANNELS 6 Xposition Yposition Zposition Xrotation Zrotation Yrotation
					JOINT LeftArm
					{
						OFFSET 0.354205 0.017364 0.090436
						CHANNELS 3 Xrotation Zrotation Yrotation
						JOINT LeftForeArm
						{
							OFFSET 0.486513 0.000000 0.000000
							CHANNELS 6 Xposition Yposition Zposition Xrotation Zrotation Yrotation
							JOINT LeftHand
							{
								OFFSET 0.335554 0.000000 0.000000
								CHANNELS 6 Xposition Yposition Zposition Xrotation Zrotation Yrotation
								JOINT LeftFingerBase
								{
									OFFSET 0.000000 0.000000 0.000000
									CHANNELS 6 Xposition Yposition Zposition Xrotation Zrotation Yrotation
									JOINT LeftHandIndex1
									{
										OFFSET 0.066117 0.000000 0.000000
										CHANNELS 3 Xrotation Zrotation Yrotation
										End Site
										{
											OFFSET 0.053306 0.000000 0.000000
										}
									}
								}
								JOINT LThumb
								{
									OFFSET 0.000000 0.000000 0.000000
									CHANNELS 6 Xposition Yposition Zposition Xrotation Zrotation Yrotation
									End Site
									{
										OFFSET 0.054120 -0.054120 0.000000
									}
								}
							}
						}
					}
				}
				JOINT RightShoulder
				{
					OFFSET 0.000000 0.000000 0.000000
					CHANNELS 6 Xposition Yposition Zposition Xrotation Zrotation Yrotation
					JOINT RightArm
					{
						OFFSET -0.349802 0.032616 0.075994
						CHANNELS 3 Xrotation Zrotation Yrotation
						JOINT RightForeArm
						{
							OFFSET -0.502649 0.000000 0.000000
							CHANNELS 6 Xposition Yposition Zposition Xrotation Zrotation Yrotation
							JOINT RightHand
							{
								OFFSET -0.336431 0.000000 0.000000
								CHANNELS 6 Xposition Yposition Zposition Xrotation Zrotation Yrotation
								JOINT RightFingerBase
								{
									OFFSET 0.000000 0.000000 0.000000
									CHANNELS 6 Xposition Yposition Zposition Xrotation Zrotation Yrotation
									JOINT RightHandIndex1
									{
										OFFSET -0.073041 0.000000 0.000000
										CHANNELS 3 Xrotation Zrotation Yrotation
										End Site
										{
											OFFSET -0.058887 0.000000 0.000000
										}
									}
								}
								JOINT RThumb
								{
									OFFSET 0.000000 0.000000 0.000000
									CHANNELS 6 Xposition Yposition Zposition Xrotation Zrotation Yrotation
									End Site
									{
										OFFSET -0.059786 -0.059786 0.000000
									}
								}
							}
						}
					}
				}
			}
		}
	}
}
MOTION
Frames: 4
Frame Time: 0.041667
0.004817 -0.019635 1.746417 2.073896 -0.013084 -1.916227 0.000000 0.000000 0.000000 -0.000001 -0.000000 -0.000002 15.635754 -6.506389 28.266191 0.259720 0.000000 -0.713576 24.322099 8.525517 1.840408 0.249236 0.000000 -0.684770 13.657197 8.606506 1.531595 0.019704 -0.214581 -0.054136 -18.687205 -6.651592 1.095674 0.000000 0.000000 0.000000 0.000004 0.000008 -0.000001 -40.027350 8.744751 -26.566169 -0.259502 0.000000 -0.712977 56.360498 -16.857815 -9.078262 -0.246780 0.000000 -0.678024 -22.108498 -4.512292 2.957382 -0.023024 -0.213368 -0.063258 -17.789494 6.345191 -0.994054 0.000000 0.000000 0.000000 5.833824 -4.266427 1.970528 0.591529 -5.515163 -0.698495 0.001021 0.005921 0.206436 -2.399126 -2.825095 -2.315363 0.000000 -0.000000 -0.000000 -15.091819 3.459569 0.189374 -4.098881 4.608769 1.227326 0.003429 0.010006 0.156041 1.218241 2.205315 0.107554 -0.000000 -0.000000 -0.000000 -0.000001 -0.000001 0.000002 15.276999 -50.931368 66.289185 0.486513 -0.000000 0.000000 -82.167189 -129.276848 44.907664 0.335554 -0.000000 0.000000 -28.721004 0.000001 -0.000003 0.000000 -0.000000 -0.000000 0.000029 1.439797 -33.656553 0.000000 0.000001 7.125002 -0.000000 -0.000000 -0.000000 -5.643698 30.980884 -7.765862 0.000000 -0.000000 -0.000000 -0.000000 0.000000 0.000001 53.647072 32.907968 -79.733292 -0.502649 0.000000 0.000000 39.884111 57.826752 66.601455 -0.336431 0.000000 -0.000000 -11.566102 -0.000004 -0.000001 0.000000 -0.000000 -0.000000 0.000105 49.354687 39.249682 0.000000 -0.000002 -7.124998 0.000000 0.000000 0.000000 -9.191862 20.151604 5.533468 
0.004467 -0.019635 1.756612 2.223070 0.261698 -2.438575 0.000000 0.000000 0.000000 -0.000001 0.000003 0.000003 15.609793 -6.274973 28.669306 0.259720 0.000000 -0.713576 25.867398 9.023001 2.076186 0.249236 0.000000 -0.684770 12.225290 8.882704 1.505303 0.019704 -0.214581 -0.054136 -19.097484 -6.790920 1.143600 0.000000 0.000000 0.000000 -0.000001 0.000006 -0.000004 -39.126243 9.060583 -25.771668 -0.259502 0.000000 -0.712977 52.042910 -16.012369 -7.856171 -0.246780 0.000000 -0.678024 -22.322851 -4.022654 2.845218 -0.023024 -0.213368 -0.063258 -19.203886 6.827009 -1.156241 0.000000 0.000000 0.000000 5.324077 -4.345201 2.164349 0.454090 -5.632589 -0.461158 0.001021 0.005921 0.206436 -2.250137 -2.870242 -2.152640 0.000000 0.000000 0.000000 -15.432635 3.397219 -0.240614 -3.414851 4.639178 1.701787 0.003429 0.010006 0.156041 1.517905 2.184874 0.306486 0.000000 -0.000000 0.000000 0.000001 -0.000001 0.000001 16.696216 -51.430235 65.957238 0.486513 -0.000000 0.000000 -82.317283 -129.181909 45.101416 0.335554 -0.000000 0.000000 -29.087197 -0.000002 0.000001 -0.000000 -0.000000 0.000000 -0.000058 1.128574 -33.280503 0.000000 0.000004 7.125000 -0.000000 0.000000 -0.000000 -5.330235 30.716307 -7.323841 0.000000 -0.000000 0.000000 0.000000 -0.000001 -0.000000 53.431340 32.650722 -80.744843 -0.502649 0.000000 0.000000 40.854954 58.043631 67.747062 -0.336431 -0.000000 -0.000000 -11.389598 -0.000001 -0.000000 -0.000000 0.000000 0.000000 -0.000058 48.822763 39.096105 -0.000000 -0.000001 -7.125001 -0.000000 0.000000 0.000000 -9.050369 19.607637 5.557626 
0.004637 -0.019635 1.760660 2.327665 0.478303 -2.991787 0.000000 -0.000000 0.000000 -0.000001 0.000003 0.000001 15.385322 -5.844876 29.100492 0.259720 0.000000 -0.713576 27.748393 9.618009 2.380844 0.249236 0.000000 -0.684770 10.356173 10.163292 1.636574 0.019704 -0.214581 -0.054136 -16.414188 -5.872213 0.847635 0.000000 -0.000000 0.000000 -0.000001 0.000003 -0.000003 -38.183483 9.415001 -24.957544 -0.259502 0.000000 -0.712977 47.947306 -15.123383 -6.756539 -0.246780 0.000000 -0.678024 -22.742206 -3.288927 2.687464 -0.023024 -0.213368 -0.063258 -20.268088 7.186200 -1.286091 0.000000 -0.000000 0.000000 5.097357 -4.386695 2.331742 0.240824 -5.695669 -0.218734 0.001021 0.005921 0.206436 -2.338933 -2.893303 -2.000490 -0.000000 0.000000 -0.000000 -14.500995 3.915225 1.278967 -4.064939 4.913394 -0.081557 0.003429 0.010006 0.156041 1.087737 2.464433 -0.499719 -0.000000 -0.000000 -0.000000 0.000000 0.000001 0.000001 18.298102 -51.935891 65.570895 0.486513 -0.000000 0.000000 -82.449686 -129.098894 45.272099 0.335554 -0.000000 0.000000 -29.478707 -0.000001 -0.000000 -0.000000 0.000000 0.000000 -0.000010 0.696419 -32.950574 0.000000 -0.000001 7.125001 -0.000000 0.000000 -0.000000 -5.048291 30.323311 -6.922591 0.000000 -0.000000 -0.000000 0.000000 0.000001 0.000001 53.211162 32.456086 -81.599758 -0.502649 0.000000 -0.000000 41.824643 58.247136 68.888666 -0.336431 -0.000000 -0.000000 -11.364201 -0.000001 -0.000000 -0.000000 0.000000 0.000000 0.000004 48.617181 39.357763 0.000001 -0.000003 -7.124999 0.000000 0.000000 0.000000 -9.227725 19.436977 5.705065 
0.005067 -0.019635 1.764708 2.323006 0.582998 -3.289374 0.000000 -0.000000 0.000000 -0.000002 0.000002 -0.000003 15.187291 -5.274214 29.250989 0.259720 0.000000 -0.713576 29.805993 10.254817 2.735912 0.249236 0.000000 -0.684770 8.457904 11.657490 1.719728 0.019704 -0.214581 -0.054136 -13.105702 -4.717892 0.542293 0.000000 -0.000000 0.000000 0.000000 0.000002 0.000000 -37.109330 9.774587 -24.495468 -0.259502 0.000000 -0.712977 44.143598 -14.224292 -5.792609 -0.246780 0.000000 -0.678024 -23.284431 -2.659125 2.576645 -0.023024 -0.213368 -0.063258 -22.948580 8.077122 -1.642085 0.000000 -0.000000 0.000000 5.010069 -4.408555 2.280825 0.108222 -5.738361 -0.025546 0.001021 0.005921 0.206436 -2.438193 -2.906785 -1.780983 -0.000000 0.000000 -0.000000 -13.495184 4.357220 2.903466 -5.129560 5.078500 -1.899413 0.003429 0.010006 0.156041 0.520180 2.695524 -1.310327 -0.000000 -0.000000 -0.000000 0.000000 -0.000001 0.000002 20.029987 -52.286611 65.053584 0.486513 -0.000000 0.000000 -82.628787 -128.987590 45.502690 0.335554 0.000000 0.000000 -29.599304 -0.000002 0.000001 0.000000 0.000000 -0.000000 0.000040 0.458277 -32.890561 0.000000 0.000000 7.125001 -0.000000 0.000000 -0.000000 -4.989124 30.092594 -6.833879 -0.000000 -0.000000 -0.000000 0.000000 -0.000000 -0.000000 52.806112 32.425459 -82.312707 -0.502649 0.000000 0.000000 42.720514 58.423751 69.941260 -0.336431 -0.000000 -0.000000 -11.646201 -0.000001 -0.000001 -0.000000 -0.000000 -0.000000 -0.000025 48.622754 39.287333 0.000000 -0.000003 -7.124998 0.000000 -0.000000 -0.000000 -9.177169 19.433661 5.673758 
